<svg width="128" height="128" viewBox="0 0 128 128" fill="none" xmlns="http://www.w3.org/2000/svg">
<path d="M47.3936 112L30.6006 128L50.7522 91.6364L62.3207 84L47.7668 88L20.1516 75.6364L16.4198 59.6364L36.1983 65.0909L11.9417 46.9091L8.58309 31.2727L27.242 40.7273L5.22449 20.7273L0 0L85.8309 57.4545L92.9213 62.1818L84.7114 54.1818L89.5627 51.2727L93.6676 48.7273L97.7726 46.9091L100.758 46.1818H104.863L109.341 46.9091L115.685 50.1818L120.91 54.9091L125.015 58.1818L128 61.0909L120.91 62.1818L114.939 64L106.729 67.2727L95.5335 73.4545L78.7405 85.0909L59.3353 101.091L47.3936 112Z" fill="#4D1F93"/>
<path d="M92.9213 44L80.9796 52L52.9913 30.5455L48.5131 1.09091L92.9213 44Z" fill="#4D1F93"/>
<path d="M47.3936 112L30.6006 128L50.7522 91.6364L62.3207 84L47.7668 88L20.1516 75.6364L16.4198 59.6364L36.1983 65.0909L11.9417 46.9091L8.58309 31.2727L27.242 40.7273L5.22449 20.7273L0 0L85.8309 57.4545L92.9213 62.1818L84.7114 54.1818L89.5627 51.2727L93.6676 48.7273L97.7726 46.9091L100.758 46.1818H104.863L109.341 46.9091L115.685 50.1818L120.91 54.9091L125.015 58.1818L128 61.0909L120.91 62.1818L114.939 64L106.729 67.2727L95.5335 73.4545L78.7405 85.0909L59.3353 101.091L47.3936 112Z" stroke="black"/>
<path d="M92.9213 44L80.9796 52L52.9913 30.5455L48.5131 1.09091L92.9213 44Z" stroke="black"/>
</svg>
