<svg width="646" height="213" viewBox="0 0 646 213" fill="none" xmlns="http://www.w3.org/2000/svg">
<path d="M239.791 145.801V75.0137H248.339V105.077H287.736V75.0137H296.284V145.801H287.736V112.544H248.339V145.801H239.791ZM321.435 109.548H314.607C314.607 104.602 316.195 100.951 319.372 98.593C322.548 96.2351 327.444 95.0561 334.06 95.0561C340.773 95.0561 345.735 96.2842 348.944 98.7404C352.186 101.197 353.807 104.979 353.807 110.088V135.436C353.807 137.63 354.135 139.071 354.79 139.759C355.445 140.446 356.755 140.708 358.72 140.545V146.538C358.097 146.767 357.541 146.898 357.049 146.931C356.558 146.963 355.969 146.98 355.281 146.98C352.89 146.98 350.958 146.341 349.484 145.064C348.044 143.787 347.323 142.1 347.323 140.004C345.686 142.198 343.377 143.901 340.397 145.113C337.449 146.325 334.043 146.931 330.179 146.931C324.644 146.931 320.387 145.637 317.407 143.05C314.427 140.43 312.936 136.729 312.936 131.948C312.936 126.446 314.689 122.533 318.193 120.207C321.73 117.849 327.641 116.67 335.926 116.67H346.242V110.039C346.242 106.829 345.309 104.553 343.442 103.211C341.576 101.835 338.448 101.147 334.06 101.147C329.508 101.147 326.265 101.802 324.333 103.112C322.401 104.39 321.435 106.535 321.435 109.548ZM346.291 130.818V122.271H335.877C330.441 122.271 326.544 123.007 324.186 124.481C321.861 125.922 320.698 128.362 320.698 131.801C320.698 134.715 321.68 136.942 323.645 138.481C325.61 140.021 328.394 140.79 331.996 140.79C336.581 140.79 340.102 139.939 342.558 138.236C345.047 136.533 346.291 134.06 346.291 130.818ZM371.541 145.801V96.1368H377.731L378.32 103.309C379.957 100.296 382.119 98.1672 384.804 96.9228C387.49 95.6456 391.158 95.007 395.808 95.007C402.161 95.007 406.681 96.5953 409.366 99.772C412.084 102.916 413.443 108.205 413.443 115.639V145.801H405.878V115.639C405.878 110.465 404.929 106.797 403.029 104.635C401.163 102.441 398.019 101.344 393.597 101.344C388.39 101.344 384.673 102.474 382.446 104.733C380.219 106.993 379.106 110.759 379.106 116.032V145.801H371.541ZM462.518 130.572H470.23C470.198 136.467 468.691 140.676 465.711 143.197C462.731 145.686 457.769 146.931 450.826 146.931C445.325 146.931 440.887 146.063 437.514 144.327C434.174 142.591 431.734 139.808 430.195 135.976C428.688 132.112 427.935 127.052 427.935 120.797C427.935 114.575 428.704 109.58 430.244 105.814C431.783 102.015 434.223 99.2643 437.563 97.5614C440.936 95.8257 445.374 94.9578 450.876 94.9578C457.36 94.9578 462.174 96.3006 465.318 98.986C468.495 101.639 470.132 105.749 470.23 111.316H462.518C462.256 107.615 461.208 104.995 459.374 103.456C457.573 101.884 454.674 101.098 450.679 101.098C446.88 101.098 443.884 101.704 441.689 102.916C439.495 104.128 437.94 106.174 437.023 109.056C436.106 111.938 435.647 115.884 435.647 120.895C435.647 125.938 436.106 129.917 437.023 132.832C437.972 135.714 439.577 137.761 441.837 138.973C444.097 140.184 447.175 140.79 451.072 140.79C455.166 140.79 458.08 140.037 459.816 138.53C461.552 136.991 462.452 134.339 462.518 130.572ZM502.799 146.931C497.461 146.931 493.155 146.063 489.88 144.327C486.605 142.591 484.214 139.824 482.708 136.025C481.234 132.226 480.497 127.216 480.497 120.993C480.497 112.315 482.085 105.814 485.262 101.491C488.472 97.1684 494.088 95.007 502.112 95.007C507.646 95.007 511.969 95.9894 515.08 97.9544C518.191 99.8866 520.386 102.867 521.663 106.895C522.94 110.923 523.579 116.032 523.579 122.221H488.16C488.16 128.87 489.29 133.634 491.55 136.516C493.842 139.366 497.658 140.79 502.996 140.79C507.351 140.79 510.479 140.152 512.378 138.874C514.311 137.564 515.342 135.321 515.473 132.144H523.186C523.186 137.188 521.515 140.921 518.175 143.345C514.867 145.735 509.742 146.931 502.799 146.931ZM488.259 116.621H515.915C515.784 112.659 515.26 109.548 514.343 107.288C513.459 105.028 512.035 103.423 510.07 102.474C508.105 101.524 505.452 101.049 502.112 101.049C498.771 101.049 496.102 101.524 494.104 102.474C492.139 103.423 490.698 105.028 489.782 107.288C488.897 109.548 488.39 112.659 488.259 116.621ZM530.996 145.801L557.719 75.0137H567.593L594.66 145.801H586.015L579.285 128.067H546.372L539.691 145.801H530.996ZM548.681 121.141H576.927L562.681 82.2348L548.681 121.141ZM606.45 82.2348V75.0137H635.63V82.2348H625.314V138.58H635.138V145.801H606.941V138.58H616.766V82.2348H606.45Z" fill="#4D1F93"/>
<path d="M76.8494 186.375L49.6193 213L82.2955 152.489L101.054 139.781L77.4545 146.438L32.6761 125.864L26.625 99.2386L58.696 108.315L19.3636 78.0597L13.9176 52.0398L44.1733 67.7727L8.47159 34.4915L0 0L139.176 95.608L150.673 103.474L137.361 90.1619L145.227 85.321L151.884 81.0852L158.54 78.0597L163.381 76.8494H170.037L177.298 78.0597L187.585 83.5057L196.057 91.3722L202.713 96.8182L207.554 101.659L196.057 103.474L186.375 106.5L173.062 111.946L154.909 122.233L127.679 141.597L96.2131 168.222L76.8494 186.375Z" fill="#4D1F93"/>
<path d="M150.673 73.2188L131.31 86.5312L85.9261 50.8295L78.6648 1.81534L150.673 73.2188Z" fill="#4D1F93"/>
<path d="M76.8494 186.375L49.6193 213L82.2955 152.489L101.054 139.781L77.4545 146.438L32.6761 125.864L26.625 99.2386L58.696 108.315L19.3636 78.0597L13.9176 52.0398L44.1733 67.7727L8.47159 34.4915L0 0L139.176 95.608L150.673 103.474L137.361 90.1619L145.227 85.321L151.884 81.0852L158.54 78.0597L163.381 76.8494H170.037L177.298 78.0597L187.585 83.5057L196.057 91.3722L202.713 96.8182L207.554 101.659L196.057 103.474L186.375 106.5L173.062 111.946L154.909 122.233L127.679 141.597L96.2131 168.222L76.8494 186.375Z" stroke="black"/>
<path d="M150.673 73.2188L131.31 86.5312L85.9261 50.8295L78.6648 1.81534L150.673 73.2188Z" stroke="black"/>
</svg>
